<?xml version="1.0" encoding="UTF-8"?>
<svg version="1.1" xmlns="http://www.w3.org/2000/svg" width="225" height="225">
<path d="M0 0 C74.25 0 148.5 0 225 0 C225 74.25 225 148.5 225 225 C150.75 225 76.5 225 0 225 C0 150.75 0 76.5 0 0 Z " fill="#FEFEFE" transform="translate(0,0)"/>
<path d="M0 0 C-0.50076448 4.33995881 -3.25037681 6.78092895 -6 10 C-8.71741883 14.50101675 -8.61740234 18.88205957 -8 24 C-4.7252864 31.74023215 3.50059308 34.72987346 10.59765625 38.35546875 C11.42322021 38.78053711 12.24878418 39.20560547 13.09936523 39.64355469 C14.74262268 40.48543622 16.39166273 41.31615612 18.04711914 42.13378906 C25.93340836 46.15217676 33.53048638 51.26496286 36.6875 59.875 C37.13584203 62.92372578 37.05914146 65.92464409 37 69 C33.37 69 29.74 69 26 69 C25.609375 67.33984375 25.21875 65.6796875 24.828125 64.01953125 C21.83694253 56.72499663 15.50220831 54.38765547 8.8125 51.125 C-1.3810938 46.1362277 -12.9764004 40.46097362 -18.1015625 29.68359375 C-19.91884835 24.25543993 -20.09992349 18.07466985 -18.16015625 12.65234375 C-14.44523967 6.16062084 -7.77467623 0 0 0 Z " fill="#040404" transform="translate(99,75)"/>
<path d="M0 0 C5.28 0 10.56 0 16 0 C15.34 1.32 14.68 2.64 14 4 C13.67704142 6.25842576 13.67704142 6.25842576 13.68115234 8.67675781 C13.66128265 9.59741028 13.64141296 10.51806274 13.62094116 11.46661377 C13.60361435 12.94493683 13.60361435 12.94493683 13.5859375 14.453125 C13.56657135 15.46848328 13.5472052 16.48384155 13.5272522 17.52996826 C13.46751901 20.76989365 13.42109572 24.00985468 13.375 27.25 C13.33681449 29.44793208 13.29776242 31.64584928 13.2578125 33.84375 C13.16182245 39.22904574 13.07776795 44.61441154 13 50 C9.7 48.35 6.4 46.7 3 45 C2.98018066 43.77893555 2.96036133 42.55787109 2.93994141 41.29980469 C2.86383877 36.76720646 2.77512839 32.2349273 2.68261719 27.70263672 C2.64434673 25.7414378 2.60949046 23.78016916 2.578125 21.81884766 C2.5324326 18.99877003 2.474445 16.17917162 2.4140625 13.359375 C2.40251129 12.48319519 2.39096008 11.60701538 2.37905884 10.70428467 C2.35918915 9.88373596 2.33931946 9.06318726 2.31884766 8.21777344 C2.30552399 7.49829529 2.29220032 6.77881714 2.2784729 6.03753662 C2.0523503 3.56807093 2.0523503 3.56807093 0 0 Z " fill="#050505" transform="translate(99,62)"/>
<path d="M0 0 C3.53842155 1.1258614 6.66189518 2.33094759 10 4 C10 9.94 10 15.88 10 22 C13.66903141 21.96680975 17.33216786 21.89940489 21 21.8125 C22.54494141 21.80379883 22.54494141 21.80379883 24.12109375 21.79492188 C31.00407569 21.59763895 35.70214258 20.52803337 41 16 C42.87092211 14.11098396 42.87092211 14.11098396 44 12.1875 C44.66 11.135625 45.32 10.08375 46 9 C47 13 47 13 45 23 C29.16 23 13.32 23 -3 23 C-2.34 21.68 -1.68 20.36 -1 19 C-0.63991339 16.78395837 -0.63991339 16.78395837 -0.5859375 14.453125 C-0.54726562 13.60878906 -0.50859375 12.76445312 -0.46875 11.89453125 C-0.4378125 11.02183594 -0.406875 10.14914063 -0.375 9.25 C-0.33632812 8.36183594 -0.29765625 7.47367188 -0.2578125 6.55859375 C-0.16379127 4.3726002 -0.07813857 2.18660938 0 0 Z " fill="#060606" transform="translate(102,126)"/>
<path d="M0 0 C6.1262046 0.31416434 10.34669916 3.26823521 15 7 C18.31044654 10.71171278 18.34947406 14.13196626 18.3984375 18.9140625 C17.90081976 21.51923773 17.073834 22.3903098 15 24 C12.375 24.75 12.375 24.75 10 25 C8.12213733 23.12213733 8.46977943 19.83718613 8.1875 17.3125 C7.42716422 11.7348129 6.80835272 8.1545666 3 4 C2.01 3.34 1.02 2.68 0 2 C0 1.34 0 0.68 0 0 Z " fill="#070707" transform="translate(115,75)"/>
<path d="M0 0 C2.09789049 1.98367869 3.65823926 3.93480777 5.1875 6.375 C8.61325675 11.28976349 13.37543156 14.12514385 19 16 C27.66206901 16.88986145 33.91261162 16.43422315 41.20703125 11.5078125 C43.11061223 10.10936504 43.11061223 10.10936504 44 8 C47.63 8 51.26 8 55 8 C53.09094637 11.81810726 52.67547909 12.5768202 49.3125 14.625 C48.34763672 15.23214844 48.34763672 15.23214844 47.36328125 15.8515625 C38.39327513 20.21054068 26.78648522 20.53154464 17.109375 18.34765625 C10.45273637 15.63612338 4.69991003 10.81547599 1 4.6875 C0 2 0 2 0 0 Z " fill="#0F0F0F" transform="translate(77,144)"/>
<path d="M0 0 C1.6421044 4.91482994 0.10604364 9.05533432 -1 14 C-4.96 14 -8.92 14 -13 14 C-9 10 -9 10 -5.9375 7.5625 C-3.18879146 5.16469043 -1.65176931 3.21177365 0 0 Z " fill="#0C0C0C" transform="translate(148,135)"/>
<path d="M0 0 C2.11119581 2.00168133 3.73310156 4.00055877 5.3125 6.4375 C7.76899047 9.9724497 10.29707286 11.84713538 14 14 C13.34 14.66 12.68 15.32 12 16 C2.07094308 7.79864061 2.07094308 7.79864061 0 2 C0 1.34 0 0.68 0 0 Z " fill="#242424" transform="translate(77,144)"/>
</svg>
